# xmcd
#
# Track frame offsets:
#	150
#	13333
#	32009
#	48350
#	65553
#	82103
#	100335
#	118818
#	134697
#	148821
#	165776
#	181894
#
# Disc length: 2682 seconds
#
# Revision: 0
# Processed by: cddbd v1.5.2PL0 Copyright (c) Steve Scherf et al.
# Submitted via: EasyCDDAExtractor 2011.0.0.0
#
DISCID=aa0a780c
DTITLE=Jari Sillanp‰‰ - Millainen Laulu J‰‰
DYEAR=2011
DGENRE=Iskelm‰
TTITLE0=Tuo Viini Pˆyt‰‰n
TTITLE1=Millainen Laulu J‰‰
TTITLE2=Tanssit Taikurilla
TTITLE3=En Se Olla Saa
TTITLE4=Hiljainen Satama
TTITLE5=Kes‰ Piirtyy Syd‰meen
TTITLE6=Myrskyn Maa
TTITLE7=Aliina
TTITLE8=Leijun Hetkeksi Pois
TTITLE9=Viel‰ J‰‰
TTITLE10=Jack
TTITLE11=Monta Kuolemaa
EXTD=
EXTT0=
EXTT1=
EXTT2=
EXTT3=
EXTT4=
EXTT5=
EXTT6=
EXTT7=
EXTT8=
EXTT9=
EXTT10=
EXTT11=
PLAYORDER=
